<?xml version="1.0" encoding="UTF-8" standalone="no"?>
<!DOCTYPE svg PUBLIC "-//W3C//DTD SVG 1.1//EN" "http://www.w3.org/Graphics/SVG/1.1/DTD/svg11.dtd">
<svg width="100%" height="100%" viewBox="0 0 27 27" version="1.1" xmlns="http://www.w3.org/2000/svg" xmlns:xlink="http://www.w3.org/1999/xlink" xml:space="preserve" xmlns:serif="http://www.serif.com/" style="fill-rule:evenodd;clip-rule:evenodd;stroke-linejoin:round;stroke-miterlimit:1.41421;">
    <g transform="matrix(1,0,0,1,-670.216,-685.187)">
        <path d="M688.966,701.687L687.773,701.687L687.361,701.274C688.831,699.572 689.716,697.36 689.716,694.937C689.716,689.553 685.351,685.187 679.966,685.187C674.581,685.187 670.216,689.553 670.216,694.937C670.216,700.322 674.581,704.687 679.966,704.687C682.389,704.687 684.601,703.802 686.303,702.339L686.716,702.752L686.716,703.937L694.215,711.421L696.45,709.187L688.966,701.687ZM679.966,701.687C676.239,701.687 673.216,698.664 673.216,694.937C673.216,691.209 676.239,688.187 679.966,688.187C683.693,688.187 686.716,691.209 686.716,694.937C686.716,698.664 683.693,701.687 679.966,701.687" style="fill:rgb(254,254,254);"/>
    </g>
</svg>
